<mxfile host="Electron" agent="Mozilla/5.0 (Windows NT 10.0; Win64; x64) AppleWebKit/537.36 (KHTML, like Gecko) draw.io/27.0.5 Chrome/134.0.6998.205 Electron/35.3.0 Safari/537.36" version="27.0.5">
  <diagram name="Page-1" id="0ZdnPiSlqX_4iVD1iO21">
    <mxGraphModel dx="700" dy="407" grid="1" gridSize="5" guides="1" tooltips="1" connect="1" arrows="1" fold="1" page="1" pageScale="1" pageWidth="850" pageHeight="1100" math="0" shadow="0">
      <root>
        <mxCell id="0" />
        <mxCell id="1" parent="0" />
        <mxCell id="HUxJ_XKQ4FmgJ0OR8UkE-9" value="" style="rounded=0;whiteSpace=wrap;html=1;fillColor=#f5f5f5;fontColor=#333333;strokeColor=#666666;" vertex="1" parent="1">
          <mxGeometry x="555" y="420" width="90" height="90" as="geometry" />
        </mxCell>
        <mxCell id="HUxJ_XKQ4FmgJ0OR8UkE-5" value="" style="rounded=0;whiteSpace=wrap;html=1;fillColor=#f5f5f5;fontColor=#333333;strokeColor=#666666;" vertex="1" parent="1">
          <mxGeometry x="350" y="420" width="185" height="90" as="geometry" />
        </mxCell>
        <mxCell id="HUxJ_XKQ4FmgJ0OR8UkE-2" value="" style="rounded=0;whiteSpace=wrap;html=1;fillColor=#f5f5f5;fontColor=#333333;strokeColor=#666666;" vertex="1" parent="1">
          <mxGeometry x="210" y="420" width="120" height="90" as="geometry" />
        </mxCell>
        <mxCell id="ZQwrlHbZBG6LkiPaMssS-1" value="" style="shape=image;verticalLabelPosition=bottom;labelBackgroundColor=default;verticalAlign=top;aspect=fixed;imageAspect=0;image=data:image/png,iVBORw0KGgoAAAANSUhEUgAAAgAAAAIACAYAAAD0eNT6AAAABHNCSVQICAgIfAhkiAAAAAlwSFlzAAAOxAAADsQBlSsOGwAAABl0RVh0U29mdHdhcmUAd3d3Lmlua3NjYXBlLm9yZ5vuPBoAACAASURBVHic7d13nB1V/f/x124K6SGBUEMJvZfQ/CUUgQDSkSpKU7FLUVRELGDhC4gIKCpiBVQQERVUEJGqUoL00CEhISGNhPS2u78/PveSm2Xv7i1z5nNm5v18PD6PJBqynzMz98y5M+d8TgsiIlLNIGBLYCtgE2BNYASwNrAWMKAUq5X+/lCgFZgLdABLgMXAcuCtUsyu+P1MYDLwOjAFmJNCm0QAaPFOQEQkEqsBuwP7AGOBbYENUs5hITYYmAi8BLxYipdK/3t7yvlIjmkAICJFNgI4ATgGeA/Qzzedbi0FngeeLsWTpV+neiYl2aUBgIgUTR/shn8ycCDQ2zedps0GngAeAR4txRTXjCQTNAAQkaIYBHwSOJP0H+2nbRorBwQPlH5d7JqRiIhIyvoAH8celXcUNJYD44ErgeOANZo6oiIiIpEbC0zA/wYcW7QBjwOXAQcDAxs9wCIiIjEZDPwQu9F532yzEMuA+4FvYIOmXvUfchEREV+HYkvmvG+qWY63gBuBU7B6ByIiItHqBVyCrZX3voHmKdqwCYUXAqNrPhsiIiIpGA7cif/NsggxEZtMuCdW9VBERMTFDsAr+N8YixgzgOuAw7HVFiIiIqk4FFiA/41QYfsaXIutKujb3UkTERFpxjFYeVzvG5/i3TEHuB44ipUbJYmIiDTtA1hxG+8bnaK2wcB1wDhUfVZERJpwErr5ZzUmAhcDm3Y+qSIiIt05FS3zy0O0AfcAH8aKNomIiFS1L3rnn8dYDPweW0mQ9Z0ZRUQkYTsB8/C/WSnCxhTg/4BRiIhI4Y0EJuN/c1KkF23AXdjOhdqXQESkgIYCz+J/Q1L4xcvAF9AWxiIihXIz/jcgRRyxBJsrMA4REcm1s/C/6SjijPHAx4EBiIhIruyOZvwreo7ZwKXYPBEREcm4YcCr+N9cFNmJZVi1wW0QEZHM+iP+NxRFNqMNuBV4DyIikikfwv8moshHPIgVF9L+AyIikRuB7S/vfeNQ5CueAk5BVQZFRKL1B/xvFor8xqvAZ4D+iIhINE7A/wahKEbMAM5FAwG9GxERd8OB57FXACJpmQxcBPwCW0UgIiIpuwr/b4WK4sZr2LbEhdtzQE8ARMTTtsATZG+C1hvA/4BngGmleAt4u9PfGwj0BVbHatmvjT3pWA/YBNgCVbOLxbPAecBt3omkRQMAEfF0F9mo7d4B/BurRX8rtm1tUkYCm2ODgfKvWwCbkr2BUR7cj80ReMg7ERGRvDoK/8e/tcRdwOhAx6A7/YH/B5wJXI/Nk2ivIV9F89GObUQ1qsezJCIidVkN2+bVu6PvLhYBpxPXk9KhwP7Al4FbsCcR3scpz7EY+A4wqJaTIyIiPfss/p17dzER2ClU4xO2BfAJ4EZgOv7HLo/xBnAycQ0GRUQypz8wFf9OvVo8S3Z3l2sBtsNeG9yKTUz0Pp55iv8AO9R8NkREZBXn4N+RV4uXsZn6edEK7IJNansAWIH/Mc56LMe2IB5Yx3kQESm8gcT7mHoG9jg9z4YDx2Fb5+rpQHMxBTi2vsMvIlJcX8G/4+4qFlK8LWR7YU8HLgDG438Oshq/B9as79CLiBTLYGA2/h1252gDDgrY7qzYDHs98xBablhvTAOOrP+Qi4gUw1n4d9RdxXdCNjqjNkKDgUbiemBYA8dbRCS3egGv4N9Bd45HgD4B250HG2CDtwfRYKCWeB3Ys6EjLSKSQzFu9/s2Vo9farcx8AXgUfzPX8yxHJvv0trQURYRyZFH8O+UO8cHg7Y4/7bGttN9Hf9zGWv8E1ir0QMsIpJ1++DfEXeOW4O2uFhasUfe1wDz8D+3scVkYLeGj66ISIbdgn8nXBmLsEfZkryBWMncf2CrK7zPdSyxEDixieMqIpI56wLL8O+AK+NrQVssZSOxTYti3/QpzfhmU0dURCRDzse/062Ml4F+QVssnbUC47CCObENBj3il0Dvpo6oiEjkWojv29+hQVssPVkH25cgxiWhacaf0EBURHLsQPw72sr4a9jmSh1agYOxyZjL8b82POLP6EmAiOTUzfh3spWhmdhxWh+4kHg3iQoZ16NaASKSM2sS1/vev4VtriSgH/BR4Cn8r5c046okDp6ISCw+hX/HWhljwzZXErYnNmlwBf7XThrx4WQOm4iIv/vx71TLcUfgtko4mwJXAgvwv45CxmJgdELHTETEzUjiKgIzJmxzJQXDgPOAGfhfT6FiArBaUgdMRMTDOfh3puX4Z+C2SroGAGcDU/C/tkLEN5I7VCIi6XsM/460HIcHbqv46AucAryI/zWWZCzBNlkSEcmczfDvRMsxCegVtrnirA9wKvA8/tdbUvH3RI+QiEhKPo9/B1oO1fwvjlZss52X8L/ukoh9kz08IiLh3Yt/59mBVZdbL2xTJUJ9gI8DU/G/BpuJR7BS2iIimTCceMq63hy4rRK3gdgToLfxvxYbjSMSPyoiIoGcjH+nWY79ArdVsmEN4GJsnb33NVlvPBTgeIiIBHET/p1mB/ACenwqqxqFbb7jfW3WG6pgKSLR60M8j1u/Gritkl1HYqtDvK/RWuPWMIdBRCQ5Y/HvLMuhddTSnQHABcBS/K/VnmIFsGGQoyAikpCv499ZdmA7yYnUYnvgQfyv2Z7i66EOgIhIEu7Fv6NUZyn1agHOwirweV+71eJ1VNBKRCI1gHg60G0Dt1XyaQfgGfyv32oxLlzTRUQadyD+HWQHVg5WpFH9gV/jfx13FT8L2G4RkYb9H/4dZAfwzdANldxrwbYdbsf/eq6M2dgGSCIiUbkf/w6yA3uMK5KEj2Iz8L2v6co4NGiLRUTq1AdYiH/nODFwO6V4Tsf/uq6Ma5NuYO+k/0ERKZQdsEmA3u72TqAb/bHSxO8FdsY2KVoLe9z8JlaY5jFsJcV92DdP8fczrKbE570TKTkEu2Y6vBMREQH4LP7fjDqwrWBjswHwI+qrkDgL+B6wqUO+8m79gVfxv77LsWvY5oqI1O46/DvFdmCd0A2twwDgXGA+jbepDbgNGJ1y7vJux+F/jZdDdS5EJBov4t8pPh28lbUbTbLfGNuA3wIj02yErKIVeBb/67wDuCdwW0VEajKYOJZLXRG6oTV6H7CIMG1cgG1y1D+11kilj+B/nXdg19dqgdsqItKjMfh3iB3AYaEbWoN9Saca4mtY4SVJ1yBsEOZ9rXegLYJFJAKfwL8zXA4MCd3QHowC3iK9NrcDPwYGptE4ecdv8b/eO4CvhG6oiEhPfoh/Z/hY8FZ2rxW/QkjPAFuFb6KUHIz/9d4B/D10Q0VEenIf/p1h4sVR6nQKvu2fBxwVvJUCVjdnGv7X/HxUw0dEnM3GvzP8dPBWVteLONaItwGfC9xWMVfjf747gN2SaExrEv+IiBTOCGC4dxLA/xx/9qHY+39vrcDlwKXeiRTAP70TKNnTOwERKa498P8WtALfMsQ3VsnLMy4P2mJZnTg2CboudENFRKo5Ef9O8KngrayuFZhbJS/v+HbAdgs8jP85TuTa1ysAEWnEJt4J4Pv4f2tgqOPP7875WOEaCSOG1wBbA/2a/Uc0ABCRRsTw7tuzBPCWjj+7Fj/Bdh+U5MUwAOgNbNPsP6IBgIg0IoYBwKuOP3tdx59diz7ADcAa3onk0MPEsWXzzs3+AxoAiEgjYngF4DkA6OP4s2u1PjZZrMU7kZxZBDznnQSwY7P/gAYAIlKvFuLYnc5zALDY8WfX4xBswqYka7x3AsBOzf4DGgCISL2G4l+JbCZWEc3LdMefXa9L0L4BSXvUOwFgh2b/AQ0ARKRea3ongO+3f4AJzj+/HiOB87yTyJkYBgBDaXIuigYAIlKvGCoAvub8818GZjnnUI+zsCI2koyngWXeSQBbNPMfawAgIvWK4QnAm84/vx240zmHegzCtm+WZCwljomAGgCISKpiWFo2xzsB4HrvBOp0BtDXO4kcieE1kAYAIpIqDQDMXfiWI67X+sA47yRyRE8ARKRwYpgDMNc7Aew1wNneSdTpaO8EciSGJwBNVaTUAEBE6hXDkrK3vBMouQf4k3cSdTgK/yWceRHDAGATmihKpQGAiNQrhvfIb3snUOHTwDTvJGq0BrCLdxI58TL+KwH6ABs3+h9rACAi9VrNOwHiqMVeNg37Zu1ZmKgeu3onkBPLsUGAt4b35dAAQETqFcMTgNg8gpXdjeXVRHdGeyeQIzEMADZq9D/UAEBE6tXunUCkHgTGEP/KAA0AkvOKdwLABo3+hxoAiEi92rwTiNgLwO7AhdiucTFq+BujvEsMA4ANG/0PNQAQkXrF8P495i1ulwIXAJsBFxHfa4HViWMeRx7EMADQKwARSc1y7wTIRl37acD52FKti4Alvum8o4U4yjnnQQxzAPQEQERSE8Ns9yzdwN7GBgK7AM8651LWyzuBnJiE/xOxkTR4L1dBiOYMxd73bQWsjX0r6QcMAQaUfl/+ptIP6F/l33kbm1i1CHt8uBxYgJU7fav0azlmYXuRvwHMS7pBIjWIYQ3+CO8EGjABOAx7bOz95SvmVyhZshyYQhNr8RPQF9sW+I16/0MNAOo3ADgFOBEYi+9IeiF28b1Z+vVV7JHUS1gnM8MvNckxDQAadx7+N3/wL2CTJ6/jOwAAew2gAUBAfYHPYI/yYtgMBawk65ZUrwc9DxsMPF2Kp0qhgYE0I4aNeJraBMXJ4cDp3klgTxtneieRI5O9E8AGAP+t9z/SAKA2WwO/AXb2TqROQ7D3jp1Lf74JPAE8XIqHiKNTl2yY6p0AsIN3AnXaEts+OIZv/7NJ7731AGBTbCJkOTYG1sNejy7BJku+hBVTupM4rq96vO6dAFraGcwY7D18R46jHdva8lfAR2iitKQUwsb4X7NtwKDA7UzK6tjny/uYlePhBNvWgm0zvBdwKlb/4Hrg39iNvZG+6B7g/WRnnsKn8D+nPwjeygI6EJuM531yPeI14OfASdgEE5GyvtgN2PsaPTJ0QxMwELgf/2NVGT+tsw1rYk9cDgfOAq4EbsMmNS4OmOe9wLZ15urhUPzP6V+Ct7JgNsfeoXuf2FjiWeBiYE/ieIwpvibjf03eGLyVzRlCfDf/DuCMUn59sDKyY4BjsZv7d7HXnfdjE4pD3uBriWVYUaWY+5wd8D+nTwRvZYH0ww6o90mNNaYC1wIHoXkkRfUP/K/DZcCtwHFUX2LrZTg2Kcv7GHUVz2Kf4Rie4tQafyDeTahWx//4xFZtMtMuw/+EZiVmYY8U90fFRYrkCvyvvcpYir3bvgo4GdgNv9U6mxDXO/+8xK3E28e8jf/xGVJv0lmZZJGmUcDzxDvajNkM4LfAL4l/RzRpzseBa7yTqMFcrD7GVGzp23TsOp2FVTRcgHXei7FCXHOxzhSszka19fJDWfWx9ACsvv5uwI+BYUk2Qt5xKXCudxJdeAb/+QrbEU+lycz6Pv4juTzEs9gHNUslW6V2u+B/jSmKF+3Y5OzY/A3/Y/O+epOOeWKFhz5YlT9p3jbYpMHJ2PLCXV2zkaQ9iX17FklTC7bkrY93Ip3EUAtgZL3/gQYAqxqLTd6R5PTD1gc/ik2K+hB6vZIHK0h2PblIrbbA5nnEJIZqgBvU+x9oALCqvbwTyLn3ADdgO2idRza2dJXqHvROQArrLO8EOolhAKAnAE3a3juBglgH2x99EnAJKjSUVX/zTkAKawds0lssYhgA6AlAk9bzTqBghgBfwqoO/pgGLmBx9SjZq9su+XGYdwIVYhgA6AlAk+peRymJWA34JLYhyJXYEwKJXwdWElbEwx7eCVSYgn0ePOkJQJPS2iFLurYacCbwCrbeVxMy4/d77wSksLb2TqDCEqy2hKdB1Fn8SgOAVXmfQDEDgC9itcjPxQYGEqd7sCc3ImmL7UlhDK8B6trJVQOAVU30TkBWMQyrJfAMcLRzLtK1DuBn3klIIcX2xSCGAcDG9fxlDQBWNd47AenSZsAtwL+wAkMSl19ipXRF0hTbK9sYBgB6AtCEf3knIN3aF9ul8WJsn3WJw0yysS+A5Ms07wQ60QAg414GHvdOQrrVB5sXMAE40jkXWelibPMckbS86J1AJxoA5MCPvBOQmmwI/AmbhT7CORexXfau9k5CCuUR7wQ6iWE/gLoGANoO+N36YXt5b+ych9RuJnAGcJN3IgU3GJuwuaF3IlIIuxHXvK21gTedc1iCLQdsq+Uv6wnAuy3BlqBJdowAbgT+QJ3rYCVR87GCTiKhvQA85p1EJ9Oxz4CnfsAmtf5lDQC69gfgN95JSN2OAZ4CDvBOpMD+DlzvnYTk3tX4V97rysveCVDHHgkaAFT3MeBe7ySkbusBd2IlhWNbJ1wUn8YGYiIhTAJ+6p1EFTEMALat9S9qAFDdYmyWeWyPmaRnLVhJ4f8CmzrnUkQLgCOwuRkiSfscsNQ7iSo0AMiRecCBwF3eiUhDdsYmCWm5YPomAcehAkGSrKuBW72T6EYMA4CYtknOhV7Y2vPF2HsnRbaiHbgE6N35xEpw78UmRnlfA4rsxy1YXxyzvfE/TkuxeimSsA2xuucaCGQz/ol2GPQwFpiL//lXZDfuwma4x249/I9VB7ZEUgJZE/gUcDv2nrOnk7EAeKtK6NtRuvEScW0jWhTbAM/if/4V2Ysfkp1vtC1Yf+99zD5fa7LSvLVKsRp28OcCi7AnBW/X8e8MBoaWYkjp17WwAhPrYuvd18eKFG2AHmk3ah5wIvA370QKZiBwBfBR1PdIz17BJvNm7XP6MLC7cw5/Aw51zkEC6o2VfdwXK75yFfaY7A38R59ZiBXYUxxJ357Ak/hfA4o44ylsGXZfsumn+B/Dpeh1Z2Gtga1eOA8rajQR/wsy1vg/9G3UQ2/gZKzstvc1oPCLxdiroZuAc6hjCVvEPoP/ce0ATu8pUXV8xTES++Y1FtgL2AGd/7LfAB8BlnknUkCtWAXHT2JPs3RN5s/b2OP8l0u/VsYU7GaVJ3sCD3gngW1vv393f0EftuJaCxiHPSk4EJtjUGR3YDeiRd6JFNjm2EDsOFTAKWums/IG3/lGP8sxLw+DgDn4z9Fqw/r5t6r9BQ0ApGxbrOP9INYRF9EDwGHYJEHxtTNwNHAQsAsqWuZpKbbX/RRsy9vXK/48qRQL3LKL03jsuvV2LFY/oUsaAEhnLcCu2IVzLHXsLJUTjwLvo5tRs6RuOPYoc2/gPcCOZGdZWOzasS1sJ2E39MmsvMmX/+y9xW0WXYmtYPD2E7qZ7KwBgPRkNHACcBr2OKkIHsdej2gQEKf+2LerHbG5LDtgT7AGeyYVmRVYjZLpwFRgBjCt9Ofp2M19CrZqaLlTjnl2PDax0dsEuplYqQGA1KovVlP/49i3sbxfO09g7dQgIDtGYDUyuopR2MAhqxYAs7Gb+qzS72d3+v3MUswoRd4m12XJ2tjAy/vVVRuwOlVe0eS9E5cwtsAma52OLTnMq8exQcAc70QkEQOx1wlrlH5ds9Ofy8W3KP3aik3o6oMNHuopRdsH+xbeB+uEO7BOeDH2WH02NtdkaenXOaVfyzG/9OtcbBZ9e/3NFWcxFAQCe3UWw6oEyZkBWFW3PK/lfoBsf3MUER9fx7//6sC2TxYJphU4HPgf/hd7iLgdTToTkfqMxr/v6gBuCN1QEbBXSodjS2C8L/oQHyLv93kiki0xbID1XPBWilRoAd5P/p4IXJrkQRKR3Psi/v1WOyvntoikpgUrLjQJ/w9BUqENhESkVmtjJca9+619QjdUpJoBwAXYDGjvD0KzsRw4INGjI5KeXsCwUmR1t72s+Qf+/dY5wVsp0oPNgL/g/2FoNuYCWyZ8bERCGIYt2b0BeJF3fxudDtyNDdB380kx987Ev8+6PngrRWp0EPAC/h+KZuIZbF25SIy2An6F1Rmo97o+Ff+NbPJkK/z7q/HBWylSh37AxawskpLF+F3iR0WkOf2By2j+vfNT2L4L0rwWVlZm9IoFqPCfRGgs8BL+N/NG49PJHxKRhmyOfYNP6tpeDnwh1Rbk15/x76s2DN5KkQYMAa7Blqt4f0jqjWXAmOQPiUhdRmP7AIS4xn+Ivj0263z8+6qDgrdSpAmHYjuWeX9Q6o1J5HtPBInbloS7+ZfjktRak09H4N9PnR28lSJNWhd4EP8PS73xd1QpUNI3iPSqzX0wpTbl0Sj8+6gfB2+lSAJ6YxMEvT8w9caZIQ6GSDeuIr3rey6wXjrNyp0WbFdHz/7pH8FbKZKgDwEL8b+x1xoLsVoHImnYnvRX0VyXSsvy6T/49k+vhG+iSLJ2Al7F/+ZeazyIXgVIOm4i/et7BRrkNuoafPumFaj6o2TQmsBD+N/ca43PhDkMIu/wrDH/vRTal0efxb9v0uBNMmkgNtHO+wNUSywANg1zGEQAqz/hdX1PQcsCG7EP/n3T+yoT0qNKyYqFwJHAjd6J1GAgcC3qJCWccY4/e31ga8efn1VPeydApy8mGgBIlizDJgb+0DuRGuyLbcIikrQWYG/nHHZ3/vlZ9BYwxzmHjSv/oAGAZE07cAa2e1nsvg0M9k5Ccmdb/AtP6V1yYyY6//xVygFrACBZdSHwTe8kerAOcK53EpI73t/+AYZ7J5BRE51/vgYAkhvfwHY+i9k5wEbeSUiu7OmdALCadwIZ9Zrzz9cAQHLlS9iEu1j1Ay7yTkJyJYYBwDzvBDJqovPPX4eKWgAaAEjWdQCfwoqixOpEbNtjkWZtAmzgnQS2aZfUb6Lzz2/FVnG88weRrGsDTiHeWtctwKXeSUgu7OWdQMnz3glk1ETvBKh4DaABgOTFMuBYYIJ3IlWMAfbzTkIyL5YBwKPeCWSU9xwAqHiCpAGA5Ml8bBAQ6/vJM7wTkMyLYQXAC+gVQKMWALOcc3hnR0cNACRvngNOwuoFxOZgYIh3EpJZ6wCbeycBPOCdQMZNdP7565Z/owGA5NFt2BLB2KxGHN/gJJv28U6g5EHvBDLO+zXAOuXfaAAgefUd4FbvJLqgEqrSqPf1/FdScb93Ahk30fnn6wmA5F4H8DHie1epXQKlES3Agd5JAG/g/w0267z7JA0ApBBmAx/3TqKTtbwTkEzamYrJW470/r95GgCIpOR24GfeSVTo452AZNLB3gmUaADQvDedf/5gYBBoACDFcDbwsncSJfO9E5BM0gAgP7yfAEBpIqAGAFIEC4HTsXkB3rxH/5I9w4A9vJPA9rJ/1juJHIihD1gLNACQ4rgPuNE7CdSBSv0OAHp7J4Et/4uxvkbWvA0scs5hDdAAQIrlS/h/8LSGWuql5X/5M93552sAIIUzBfie489/E3jc8edL9rQAB3knUXKHdwI5MtP5568JGgBI8VwCTHX62ddjOxeK1Gon4lj+NwV4xjuJHJnt/PP1BEAKaSFwnsPPXQb8wOHnSrYd7Z1Aib79J8t7QyANAKSwrgf+k/LP/BEwOeWfKdl3jHcCJRoAJCuKAYBIUe2IfSvvSCEmoV0ApX7bks712VMsB1YP3NaiOR/fc3ov6AmAFNeTWIGg0JYDJwLzUvhZki/HeidQ8l9grncSOeM9B0CTAKXwfkTY9/LtwKmk/7pB8kGP//PL+xXAMOefLxKFFuACkn/EthT75i/SiC3wf/Rfjp0Dt7WI9sP3nKokuUiFk7HHnEl8uF4F3pNu+pIzX8H/xt+B1a1vCdzWItoV3/PaDvQK3kqRDNkI+B22Vr+RD9VSrM7A4LQTl9x5DP+bfwfwq8DtLKoYnvBoYqdIF7YDrgZmUNsH6RXgQko7bIk0aRT+N4dyfCBwW4tqbfzP7YZ6tCNSXW9gF2A3YGts4swgYAFW1vdZbIb0BK8EJZe+CFzqnQS2THYtbPMaSVZ//Pcl2d7554uISCdP4P/tsAO4PXRDC24pvud3rJYBiojEY1usSFUMbvFOIOe8Z+IP0QBARCQep3knULICuM07iZzzfrWiAYCISCRaiWfS3b34F6vJO+/qoEM1ABARicM4YKR3EiV6/B+e9yTAARoAiIjE4WTvBEragT97J1EA3gOA/hoAiIj4Gwgc5Z1Eyb+xCoAS1mLnn68BgEggvYB+3klIZhyD1ZiIgR7/p8P9CUBv5wREYtYf2BSr8Lc2MAIrjLJO6fcjgKFAX+xm37/0+4Fd/FvlfQaWYh/8Zdgkq3JM7/TnicBrpb8v+RfL4/8O4FbvJArC/QmABgBSdL2wm/yWWH3uzYHNSr9uQHIboTRSd7sdmIKVGq6M54HnsKVakn0jgX29kygZD7zunURB6AmASMrWw8r7lmMMMNw1o+pagQ1L0fkGsRx4Cds0phyPAwvTTFAS8VHi2Zntd94JFIieAIgE1Afblnd/YG/shj/ENaPk9AG2KUX58XEb9mTgvlLcj71akHj1Aj7snURJGxoApElPAEQStgm2nnoccCD2jr4oemE7GW4HfKb0v70K/BOb2X0PMNknNaniEGwb6hjchW1yJelwfwLg/PNFmtYPOBzbt7zW7XuLHP/Dti7eheTmN0jjbsP/mijHhwK3VVb1RXzP973BWygSQH/spn8dVk/bu+PMaswoHcPjiGcJWpGMxCZyel8HHdgW17oG0nU2vuf84fBNFElGX+xG9Sfs3Zl3h5m3WAD8HjiidKwlvAvwP+/l+HXYpkoXPovvOR8fvokizdkKuBibzObdSRYl5mBPBsah1wSh9AIm4X+uy3FA2OZKFz6J7zl/InwTReo3BPg49ojKu2MserwCfBOrkSDJOQL/c1uON4hnGWKRnI7veX86fBNFarcR8ENsLbt3p6hYNdqx1QRHA1o91Lzb8T+n5bgscFula6fhe96fC95CkRr0Ab6BLYvx7gwVPcdk4KtYSWSp3yjimfzXAewYtrlSxYfwPe8vhm+iSPdGAv/FvxNU1B9LscIxe73rrEp3Lsf/3JXjycBtlepOwPfcvxq+iSLVbY5tlOp39gAAIABJREFUeuPdCSqaj4ex7Wy1w2j3BrNyY6gY4oywzZVuHIPvuZ+kD6t4WQ/4B/FUQZPm7I7tIvcCNoGzj2860TqNeKpTLgZ+451EgbU5//zeGgCIh97AzcDGznlI8jYDrsE2KjoLGOCbTlRaWFmiOQY3A295J1Fg3ktsNZlXXJyP/6NPRToxHSt5qoEAHIr/+aiMPcM2V3pwNL7nf1b4JoqsaiRa5lfEmIp9+y1ylcE78T8P5XgO/2+gRec9B2COXgFI2s5B3waLaF2sxsNL2ByBoj1+3IK4qu1dg90ExI/3AKxdAwBJUx/gVO8kxNWG2M3nceAg51zSdDb+HX7ZEuB67yTE/XrQAEBStTcwzDsJicJ2wB3YHvQ7OOcS2hrAKd5JVLgFmO2dhGgAIMVymHcCEp1xwGPAT4ARzrmEciYw0DuJCtd6JyCABgBSMKoYJ13pDXwCqyHwKfK1Mc1A4lr69wJwv3cSAmgAIAWzuXcCErVhwI+wqoJ7OOeSlNOxVwCxuBpN/ouF9wCgTQMASUsfbJtfkZ7sAvwHe1Q93DmXZvQGPuedRIX5wK+9k5B3eN9/O7wTkOJQaVipRyv27XkCcLxzLo36AHGVuv4FMM87CXnHas4/X08AJDVL0KNHqd/awE3AX7AiUlnyee8EKnQAP/ZOQlbhPQDQHABJTTvwhncSklmHA88Cn8T/3WktDgZ29k6iwt+xCYASD++qmHoCIKma4J2AZNoQ7FvsncT/NOBc7wQ6+YF3AvIuegIghfKgdwKSCwcAz2AlhWM0BtjHO4kKL2Fbb0tcvJ8ArNAAQNL0F+8EJDeGYiWF/0h8BYQu9E6gk6uwV3ASF+8BwBINACRNT5ZCJCnvx66pcd6JlLyHeHIBW/p3nXcS0iXvVwBLirYjl/i7jHxtRLIM21d7FrAcWIF1ugALsJ0PW4HB2LrwgaUYAfRLO9mcWhebF/Bd4GvYefDyNcef3RUt/YuX+xOALMymlXzpjdV+z8oGMNOxd6iVMQ274U8H5jbxbw/Gbl4jSjEK2AyrmLgZtnNensripuER4IPAKw4/e2fs2o6lX12BXUeTvBORLv0IK33t5XY9AZC0rcCWct1PXHvCdwAvYh34+NKvTxD229P8UrxY5f9fDevAR2PV8XYBdgIGBcwp63bHzt0ppD/n5BvEc/MHq5+gm3+83F8BOP98KbAvYzddr2gDHgUuBg4kO2WKewHbAB8BbsBqK3gex1ijHfgW6ZVb3Ra7przbXRkx1SGQd7sR3+sjT69iJWNasFncaV7wb2DryI8h2zXmO9sKe5R4M/ZKwvvGE1P8nXTO9R+d2lct7gjbXEnA7fheI9oWWly1AJcS9iKfBFwJ7In/5htp6IW19UpgMv43ohjidWC3Zg5qD3bBnjh4t7My9g/YXknGvfheIyoOJVH4KDZjPqkLeyZwOdYxF1kLduO7GLsJet+UPGMRcHJzh7Oqv0fQvsp4grjmIkjXxuN7nXw3fBNFarMx8Aca/ybVhnXEx+K/vCZGrcB+wC+xiY3eNymv+CHJXh9jI2hT5zghwfZJOM/je518K3wTReqzPfATYDa1XcQTgK8CG3gkm1EDgA8BdxPfo+s04kFs+WUS/hVBeyrjVeJaXSPVTcH3WvmqHhNJrHpjy992B7bA1sn3ApZiH5zngQewDk8atw3wGezx+GDnXNI0CTgU22GwUfsD/0wmncScgT3lkPjNAVZ3/PnnOP5sEYnIYGxznafx/xabVswDDmrimP0ngjZUxptA/ybaI+laju/1cnr4JopI1owjvptbqFgKnNTAMToigtw7xxcaaIf46If/9XJc8FaKSGbtCdyGf0cVOtqBC+o4Lr2w7Yi9866MWRTrFU7WrYn/NdPM0y8RKYjdgT/j32GFjmuobQLd6RHk2jm+UkPeEo9R+F8zY4K3UkRyYw/8i5eEjn/QfVnofsRXU2EuvpPJpH674H/dbBu8lSKSO0dgs+e9O7BQ8RjVlwl672HRVVxQJVeJ1wH4XzdaOi0iDWnFJhG9hn9HFiJeAzbp1OZh1F6fIq2Yj71Plmw5Af9rZ2jwVopIrvUFzsLWNHt3aEnHJGw75rLLIsipc1zc3cmRaH0K3+umnWLsjSIiKVgT+AX5qyw4BdgSGwgsiSCfypiPFciS7Dkf32vn7fBNFJGi2ZP4lsg1G9OJr+RvB/DtGs+JxMf7adLk8E0UkSLqg70WSHKHR8WqMRcYXusJkej8At/r51nQOwARSd5y4EpgB+AO51zy6nvAW95JSMO8B2/zQAMAEQnnVeBgbNngFOdc8mQ2NsCS7PIeAMwGDQBEJLzbgJ2AP3gnkhOXUPoGJ5nlPQCYCRoAiEg6ZmN1A47H3l9LY94ErvZOQprmPQDQEwARSd3N2NOA+70TyaiLgEXeSUhTWvFfvjnT+eeLSIG1YisFluI/oz4r8RqwWiMHW6KyFv7X0kdATwBExEc7NpFtLPCCcy5Z8XVswCTZto53Atj20RoAiIir8cBo4DrvRCL3FPAb7yQkERoAiIiULAJOBT4BLHPOJVbnYk9NJPtiGABoFYCIROWnwBhsEx5Z6T5UUClPqm01nSY9ARCR6DwG7IHd9MQmbH3ZOwlJ1NrOP38FpaW4GgCISGymA+Owgjcdzrl4uxl4yDsJSZT3K4BZ6HMlIhlwAsXdVGgJsGnzh1Ai472z5NPlRPQEQERidhM2L6CIewlcBbzinYQkzvsVwCznny8iUpf1gcfx/1aeVkwHhiZy5CQ2b+F7bd1QTkRPAEQkC94A9qY4s+HPB972TkIS1x9Y3TmHqc4/X0SkIb2x5YLe39BDxuNAr6QOmERlC/yvrzPLyegJgIhkyQqsYNCFWGeWR58D2ryTkCA28k6AYs6nEZGc+TCwHP9vVEnGHxI9QhKb0/G/xvYI3koRkRQcBizGv1NNIpYAmyR7eCQy38L/Olu/nIxeAYhIlt0OvB8bBGTdFcCr3klIUBs5//w2bIWJiEhu7A3Mw//bVaPxJjAk8aMisbkP3+tM7/9FJJd2BWbjfzNvJD4a4HhIfCbie52prLSI5NbO2Fan3jf0emI8eh1bBL3wn7R6S2VCuuhEJE8ex14HZKnYyWVAu3cSEtz6WB0LT6u8AtAAQETy5jlgP7Iz2el8YKB3EhLcRt4JYBU136EBgIjk0QvAoWSjnO522AoAyTcNAEREUvIYcDC2nXDsTgeO9U5CghrlnQDwuncCIiJpGocV2fGe7NdTzATWDXQMxN/1+F9j6wVvpYhIZI7CfwZ2LXEn0BLoGIivh/C9thaha0tECuokrBKa902+p/h0qAMgrrxrVDzTOSHvJQlZtx5Wu3sT7P1O+ferAwOAuViFr+eAB4G7gfkumYrIDcAw4CrvRHrwXeBfwPPeiUhiRgDDnXNQmekGDQTeg21DejXwADa7uJFHML8BRqebvohUuAL/b/k9xWNA31AHQFI3Bv9r6vvBW5kTI4ETgCuxD2KId4e/QxMyRDy0An/Ev0PuKb4d6gBI6k7D/3o6I3Qjs2owNknoJ9hjkrROyCzg8BTaJyKrGgg8jX+n3F2sAHYLdQAkVd/B/3o6JHgrM2Rj4BzsXdtS/E5KGxqZiXhYh/j3DXgS6BPqAEhqbsb/WtoqeCsjNwr4IvAIVnvb+4RUxqcCtltEurYNsBj/z3938aVgrZe0PIHvNdQG9AveyggNAj6CzcL3/iB3FyuA/QMdAxGp7gDs8+fdB1SLhdjqIsmmFqwapec1VLgKgHsA1wLz8P8A1xrTsGVKIpKus/D//HcXd4RrugS2Af7Xz72hGxmD3tjsfe+KS83EDxM/KiJSi1/h//nvLj4UrOUS0v74Xzu/CN5KR4Ox92Sv43+gm42lwIbJHh4RqUF/4H/49wHVYiawZrDWSyhn43/tnB+8lQ4GAefiX2Ix6fhOkgdJRGq2GTAH/z6gWvw8XNMlkJ/jf90cHbyVKRoEfB0rtet9YEPEJLRpg4iXw4l3z4B2YK9wTZcAHsb/usnFEsDewCVYSV3vAxo6tknomIlI/b6Jfx9QLf6HVTOU+LXivwJgKTnY9+fLFOPGX47TkzlsItKAVmxrXu9+oFqcGq7pkqDN8b9Wng7eyoC2Ix+T++qNy5I4eCLSsLWw3Ty9+4Ku4g2snLHE7Wj8r5WbqiUX82OkPth7/iexdZRFM8I7AZGCmwF8GOtEY7MeVtVU4ra9dwLABO8E6vUe4CX8R06e8Yemj6KIJOFH+PcHXcUitGQ4djHsAXBs8FYmpB9wMXGX5Uwrrm/yWIpIMvoBT+HfJ3QV1wVstzTvefyvkUxMKB8NPIf/wYolvtfc4RSRBG1HnJsGtQO7B2y3NK4//l9ml9HNbpIxzAFoAT4H/IecrFVMyIveCYjIO54hzmpqLcB3vZOQLm0D9HLO4SVguXMOVa0J/BX/UXSMsUMTx1VEkteCbari3Td0FfuFa7Y0qDyB1DNu7i5BzycAOwCPAIc45hCrqdg3DhGJRwfwMexVQGy+6Z2AvMto7wToYQWA1wDgaODfwCinnx+732Hv9kQkLi8R5812LLCvdxKyit28EyCyJYAt2OY9sdbZjiFWAJs2eoBFJLjewHj8+4rO8WDIRktd+hDHpNFtQze0VoOAW/A/ILHHTxs9wCKSmh2xGdbe/UXn0FOAOIzG/1pYRCR7AGyIVfTzPiCxxwxUAVAkKy7Fv8/oHHoKEIdP4H8t/Dd4K2uwOba9rffBiD3agUMbPMYikr7+xFmx9L0B2yy1+Tn+18EPg7eyB9sD0/A/EFmIcxo8xiLi51D8+47OcXfQFkstnsD/Ovho8FZ2YxdgZhdJKd4dFzd4jEXE39/w70M6x45BWyzdGYAV3/G+BnYK3dBq3gvM6yE5hR2jExo7xCISia2Ib0LgtUFbLN0Zi//5XwL0Dd3QrrwPm33ofQBij9tRHQSRvPg+/n1K5xvAWkFbLNWcjf/5Hx+8lV3YC1jYQLJFiWXAH7ERoojkx+rYKh7vPqYyzgvaYqnmt/if+2uCt7KTnYG5CSSel2gH3gDuAa4GTsT2PhCRfPok/v1OZbxBNzvBSTAv4H/uPxm8lRW2AKYHaEQWYhk24/N64IvY3gZbYXuIi0hx9AKexr9Pqozjg7ZYOhuOffnzPu+pbRG9AcVa5z8H+BN2s98T3ehFZKVj8e+jKuPfYZsrnRyB/zlfTkr3peHAcyk3ziMewzYAGUMkpRVFJEotwOP491mVoa3F0/Nd/M/3E8Fbid0I73JoXNpxaVIHTEQK4Uj8+63K+G7Y5kqFh/A/378M3krgKqfGpR0zgcEJHTMRKYaH8e+7yvEGNj9BwhpIHPUgPhu6oadF0Mg046uJHDURKYpD8O+3KuOAsM0VYBz+57kDW5EXzFisyIR3I9OMOdg6XxGRWv0H/76rHNcFbqvAhfif5/kEnKe2HsVd7vetBI6fiBRHTHMBFgCDwja38O7B/zzfFapxrRRj0l+1mI9Ka4pI7VqB5/Hvu8pxUtjmFlpf4qiCe0E9SbfW8Xe/ir3jKKpBaMteEaldO1YFNBYaAISzK7YLoLcgdR/2Io7tDb1jIbBuk8dSRIpjADAb/76rA5uhPjRscwvrXPzP7wpgSD1J1/IEYDjwG1QAB+zDrLkAIlKrRcDPvZMo6UOxn+KGtLd3AlgZ6nlJ/6PX4z+yiSnagF2aOqIiUiTrE8f68A7iGYzkSSu2Usz73P4g6YYdGkGjYox7mjmoIlI4f8S/3+oApmLliiU5u+F/XjuADyTZqKHA5AgaFWsc0fihFZGCOQr/PqscowO3tWjOx/+cdmAb8yXm2ggaFHO8DKzW8NEVkSLpA8zAv9/qQJVNk3Yf/ud0SpINGkMcexrHHmc3eoBFpHBi2T9FWwQnZzBxzO/4XVIN6gX8L4IGZSHeAkY0dphFpGB2xb/P6sCWiw0M3NaiOAL/89kBnNFI8l0tA/w0gTcTyJFhaKtNEanNeGCCdxLYl7ztvZPIiQO9EyhJ5KnOMOIpWpGVaAf2a+Rgi0jhxDJhLNEZ4wX2Iv7n8i0a3O658xOAr2CFf2I1A/indxKdtAA/RhMCRaRnf/VOoGQN7wRyYGNgc+8kgLux+jR1qxwAbAh8NpF0wpgF7A98DvvWHZMtgC94JyEi0XuShGdsi5v3eSdQksiX4qvxf5RRLeZiE2jKbokgp86xCNi0juMtIsV0Df791SnBW5l/sdyHmr7vrAssjqAhXcUSYM9O+W5JnJsT3Vnj8RaR4joS/75K85aa0wt79+59Hicm0ZhLImhIV9EOfLBKzj+PIL+uQiNrEenOQHy/cLWjOQDNGov/vaYD+GmzDekNTIugIV3FN7rJe0PifGoxB9v8Q0Skmtvw66OeTqF9eXch/veaDuD4ZhuyfwSN6CpuoudNK74XQZ5dxT9qyF1Eiusk/Pqnb6fQvryLoVheGwkUorsogoZ0juexEos9WRObIOidb1dxeg35i0gxDQYW4nPT2CSF9uXZRsRRKv+xZhvSCuzU7D+SsMVYkYr5NfzdWdgAJkZXoA+aiHRtPtZHpO0W4FWHn5snRxHHE95Elv89j/9Ipplvzn2JoxpTV3E3cVwoIhKfIaS7Q+AS4ihck3X34H9v6QAOSKIxb0bQkHLc3mAbjokg92rR0CYNIlIIHyC9vujclNqUZ2sQxxL0xUD/JBoUywqAWVg9gkbdG0EbuoolaHMlEanucsL3Q3+nwXrxsorT8L+ndJBgSfwXImhMB/CxJtsxGpvg4t2OruI5tP2miHStN3Az4fqfB4FBqbUm3/6I//2kA/hyUg26M4LGjKfrrYnrFXM5418k0D4Ryade2KZiSfc7t6Obf1IG4LNyo6tI7KmydxXANmCPhNoyBHjDuT3dxYcSaqeI5NNHsGJizfY1S7Gth/XYPzlH4X8P6QAmkeDk8kOcG9N0KcNOTnRuT3cxH9s5UESkmnWBX2E38Xr7mHbgz8DWaSddAL/C/x7SAVyVZKP6ArOdGrKYMGVzY3itUS0eAVYL0GYRyZd1sZKzj9Pz/KZXsMqoW7lkmn+9gJn43z86SGj5H6x8jHAlcGZS/2gdrgA+F+Df3Qx4ioSWSQRwHXCqdxIikhlrALsDawNrAX2wKqiTgCeByX6pFcK+wL+8kwDexs7/siT/0VE09ripmZhLAnWMu/HVlNtTb6hUsIhINlyB/z2jA7gxVAMvTbkhiS1jqKIvMCHlNtUTy7AtJUVEJF6twBT87xkd2By3IPphj83TaMRD2A06tL2JY9OGajGV5oofiYhIWOPwv1d0YF8ah4Vs6DYkswSlu5gObBCyEZ38OlA7kooHsfd5IiISn1/gf5/oIMHqf93ZC5gXqAHTge3TaESFEcQze7NaeOwKJiIi3etHPFvOnxW4re/YjeTfebyI39rUI2vM0TM+Haz1IiLSiGPxvzeUY1Tgtq5ibaygRBKJXwcMTjP5LlyH/wnsLlYAhwZrvYiI1CuW2v9Phm5oNYdjhSgaSfp+YEz6KXdpKDAR/xPZXbxN+q9IRETk3YZgxeq87wsdwDcDt7VbLdjcgGvo/ibaju18dzmwo0eiPdiLeHcMLMdr2NMXERHx81H87wfl2C1EAxvdUGA9rOTkGtij/dnAW8DT2ISJmF1BipMpGvRfYD9giXciIiIF9U9gf+8ksA3uNsAGAtKk/sRdIKgcN5PMFskiIlKf9YjnafGVgdtaODuTfunjRuInoQ6AiIhUdQ7+/X85YplHlytfw//E1hIXBGq/iIh07TH8+/4ObJOnRl/VSzd6YyWJvU9wLfGpQMdARERWtTX+fX45Lg/c1kLbCJiF/0nuKdqA4wMdAxERWely/Pv8cuwRuK2FdyRxbxhUjiXYphQiIhJGP+L5UjgRPf5PxSX4n+xaYgG2w6GIiCTvg/j38+X4buC2Sklv4D78T7gGASIifu7Fv48vx85hmyqV1gam4n/Sa4m3gd3DHAYRkULaknheB08I3FZAhWYqTcce/7R5J1KDIcA/gF29ExERyYmPEc879+u9Eyiq8/Ef/dUac4DRYQ6DiEhh9AVm4N+nd2BPIVLd+ldWagH+hP9FUGu8RaCNIkRECuJE/PvyctwXuK3Sg+HEv3Vw50GA1ouKiDTmX/j34+X4ROC2Sg12BObjfzHUGvPQ6gARkXptTjyT/5ZiX0AlAgcDK/C/KGqNhcCBQY6EiEg+XYp/312OmwO3Ver0BfwvinpHkO8PciRERPKlL7YCzLvfLschYZsrjfgZ/hdGPbEMOCnIkRARyY+YKv9NAXqFba40og9wN/4XSD3RjrYSFhHpzsP499Xl+E7gtkoThgMv4H+R1BtXooJPIiKd7YN//1wZW4VtrjRrS2zJnfeFUm/cgD3FEBER82f8++ZyaO1/RuyNTbTzvmDqjX9iJYRFRIpuc6zsu3e/XI7TgrZWEnU68awbrSceA9YPcDxERLLkavz743LMBQaGba4k7Tz8L5xG4g1glwDHQ0QkC4Zj26p798Xl+EHY5koo38X/4mkkFgBHBTgeIiKxi23Dt+3DNldCaSF7NQLKoWWCIlI0fYDJ+Pe/5XggbHMltN7ENZu03rgGrRAQkWI4Bf8+tzJODttcSUN/4F78L6ZmRqHrJH1QREQi8zj+/W05ZgH9wjZX0jIEm2XvfVE1GlPQlsIikl/j8O9nK+OysM2VtK0NvIj/hdVoLAZOTfyoiIj4+yv+fWw52rBaBJIzo4DX8b/Amomr0LwAEcmPHYirdstfwzZXPG1K9gcB9wLrJnxcREQ83IR/n1oZB4VtrnjbCHgV/wutmZgBHJj0gRERSdFWxFX29wVsCbnkXB4GAe3AxWifahHJpuvx70cr49Nhmysx2ZDsDwI6gH+hpYIiki2bAMvx7z/LMQcYFLTFEp1RwET8L75m4w1sN0QRkSy4Fv9+szIuD9tcidXG5GMQsAL4FlYBUUQkVhsT19btK7AnElJQGwKv4H8hJhGPoHWsIhKvX+DfT1bG78M2V7JgI2wWqPfFmETMw2pri4jEZHPievffgSqtSslw4L/4X5BJxc2lNomIxOAG/PvFyrgvbHMlawYBd+J/YSYVU4HDEj1CIiL124a41v13AIcHbbFkUl/iq1DVTLRj2wsPTvIgiYjU4Wb8+8LKeB5oDdpiyaxewE/xv0iTjFfQckERSd/OxFXzvwP4WNAWS+a1AN/B/0JNMtqA7wP9EzxOIiLduQP/vq8ypgH9grZYcuNs4hu9NhsvAu9N8BiJiHRlf/z7u87xxaAtltw5mbiKVyQR7dhrjtUTPE4iImUtwHj8+7rKmIXmQ0kDxmI78XlfwEnHNFQ3QESS90H8+7fO8fWgLZZc25z8FAzqHH8E1kvuUIlIgfUlvgqrb6MnntKk4cA9+F/MoT4gZ6E9BUSkOWfi3591jouCtlgKozfwI/wv6FDxBDAmsaMlIkUyDJiJfz9WGQuBtUI2WornXOKrbpVUtGHbdq6R2NESkSK4Av/+q3Noy18J4mhsdOl9gYeKWVjRDFXNEpGebAUsw7/fqoyFwDohGy3FtiswGf8LPWQ8BuyZ1AETkVy6Hf++qnNcGrTFIsCawF34X+yh4zZg42QOmYjkSIxFf+ajd/+Skt7AZeSvcmDnWAhcAAxI5KiJSNb1Bp7Fv2/qHN8O2WiRrhyPjTy9L/7Q8TpWREjzA0SK7Wz8+6POMQdbkSCSui2Jc0QcIp4FDkvmsIlIxqwDzMW/H+ocqvonroYAt+L/QUgr7gB2SOTIiUhW/Bb/vqdzzML6XxFXLcBXgBX4fyjSiDbgl2iioEgR7Id/n9NVnBOy0SL12h+Yiv8HI61YCvwYGJnEwROR6PQFJuDf13SOiUC/cM0WacwI4lwnG3ogcA3aaEgkb76Mf//SVZwcstEizWjBHk8txf+DkmYswpZIak2uSPaNAhbg3690jifRqiTJgF2AF/H/wKQdC4ArgbWbP4Qi4uQ2/PuSruJ9IRstkqTBwHX4f2g8Yj5wMVqnK5I1J+Hff3QV9wZss0gwp1KMwkFdxRzga2jJjkgWrAnMwL/f6BztwG4B2y0S1BbAw/h/kLxiLnAJsG6zB1JEgvk1/n1FV3FDyEaLpKE3cC6wBP8PlFcsxV6LbNPksRSRZO1LnPucLAI2DNhukVTthM1m9f5geUYbVkXx/zV5LEWkeYOAV/HvF7qKbwRst4iLPtjTgGX4f8C840HgcGwJpYik7yf49wNdxWRgYMB2i7jaHXgO/w9aDPEicBaq8iWSpv2J89F/B/DBgO0WiUJ/4Arssbj3By6GeB34AlpCKBLaEGAS/p/5ruK/6KmgFMg+FLN4ULVYCFyLzZkQkeT9DP/PeVfRDuwRsN0iUeoHXEDxSgn3FOOBj6PXAyJJOYB4H/3/PGC7RaK3PfAQ/h/E2GIqNkDS5kMijVsDmIL/57mrmI1trCZSaC3Yt9638f9QxhYrsHrl49B7QpF63YT/Z7hafCJgu0UyZwPgL/h/MGONJ7CBksoNi/TsI/h/ZqvFI2i3P5EuHYs9Avf+kMYaC7FSpvugpwIiXdmMePclaQN2Ddd0kewbiCYJ1hKvY7sRbtzIQRbJod7Y0jrvz2a1uDpc00XyZVvgX/h/aGOPFcBfgWOAvg0daZF8+Cb+n8dqMR3V/RCp2/FYuUzvD3AWYibwfWyFhUiR7IMNhr0/g9VCFf9EGjQQuIhi7zJYb4wHPg+s38DxFsmStYA38P/MVYu/hWu6SHFsBtyO/wc6S9GGbUZ0Flp7LPnTCtyJ/+esWiwERgVrvUgBHQZMwP/DnbVYCvwZ+AAwoO6jLhKfr+L/ueouzgrXdJHiagVOAabh/yHPYizCCg0dhyYPSjbtQ9zv/R8GegVrvYgwGPg29qjN+wOf1ZiF1SY/HO1FINkQ+3v/ZWgyrkhqRgK/QlsONxvzgZuBDwGr13MCRFK22JrrAAAHM0lEQVTSG7gb/89Kd/GtYK0Xkaq2wdbFe3cAeYgVrJxAqNUEEovL8P9sdBfPoidpIq4OAh7FvzPIS7RjuzeeC2xZx3kQSdLxxLvFbwf26H/nYK0XkZq1AEcDz+DfMeQtJmC1GXZHm5tIOrYl3jr/5fh6sNaLSENasdnuL+LfQeQxZgG/x3Ys3KDGcyJSj8HEv/T3f0CfUAdARJrTB9uLewr+nUWe40ngUmAcsFpNZ0akulbi3y58CfaEQkQi1w8rkzsd/44j77EQm5R5Jpo7II25CP/ruKf4UrDWi0gQA4CziXs9cd7iNeAn2NyMNXo+RVJwJ+N/zfYUD6KCPyKZ1RerKvgy/p1J0eIV4JrS8d+opxMlhTKG+DcAmw9sHuoAiEh6+mA3ohfw71iKGlNZOaFQ71SLayPgTfyvx57ipFAHQER8lFcNPId/B1P0KA8IzgJ2wZZ2Sr4NAp7A/9rrKX4f6gCIiL9W4FhsUw/vzkZhMR3bxOhrwPuA4VXPnmRRL+Kf8d+BzWUZGugYiEhk9sRuPDFXIStqTC2dm3NL50lbHWfXVfhfTz1FG/DeQO0XkYhth206tBT/jkjRdSzDirL8GPhI6Zz17uJcSly+hP+1U0t8M9QByAO9o5MiGIm9l/44MMQ5F+nZEqyS3FPA0xW/TvdMSt5xIvAb4r9/PAjsi22UJV2I/QSKJGko8GHgs8CmzrlI/WawcjBQHhhMABZ7JlUw7wXuIP6qkTOB0VglUalCAwApolbgUKzi3f7oc5BlbVhNiOew/SNeKsUL2NI0Sc422LfqYd6J9KAd+3zf4Z1I7NTxSdFtC5yBVTHThLR8mcfKAcGL2KCg/Oe5jnllzRbA6dgcjSxUhPwO8FXvJLJAAwARMwzr5D4NbOybiqRgFjAZeB2YVPq1/OfXgWnYJLIiGgC8B9gb2yRqDNm5V9yL5dzmnEcmZOWkiqSlFVuz/kngEFQ3vKiWYe+PKwcE07F3yzOw1wszS5HVSWat2GB3S2Dr0q/bA7uSza1ypwM7Y+dKaqABgEh1GwAfAz4KrOeci8RrZkVMA97GXjG8jdWfn1eK+RX/+zxgOTAnwTz6Y9/ehwKDK36/FrBuKdbGruW1gFHEP5mvVm3AQcDd3olkiQYAIj3rDRwBfAJ7vNjqm47k0HJgQen3i7DaFWCDhf7YJlid9QUGln6/OsXuz88DLvZOImuKfMGINGJTbDLUqcD6zrmICNyC7QdS1DkbDdMAQKQxrcB+2I6Ex2Lf0kQkXc8De2CvVKROGgCING914HjsFcFo51xEimI+dvN/zjuRrNIAQCRZo4HTgA8AI3xTEcmtdmxezl+9E8kyDQBEwuiF1SE/BXg/tm+6iCTj68C3vJPIOg0ARMIbAhwNnIQNCrSKQKRxtwLHoEl/TdMAQCRd62O7qZ2AFVwRkdo9DuwFLPROJA80ABDxsyH2euA4YKxzLiKxm4ZN+pvsnUheaAAgEoeNgSPRYECkK4ux12cPeyeSJxoAiMRna2zOwNFoWaFIB7bM9g/eieSNBgAicSu/JjgMeC9WllikSM4HLvJOIo80ABDJjnWw1wRHYYOBfq7ZiIR3PVZ2WzP+A9AAQCSb+mNzBQ7HBgQb+qYjkrh7sa25l/bw96RBGgCI5MMm2GDgMGAfsrmfu0jZM9hyv7neieSZBgAi+TMc2B/buvgI7NWBSFa8Afw/tNwvOA0ARPKtF7Z2+jDgYGBH9LmXeM3Bvvk/651IEagjECmWEdgEwj2xOQS7uGYjstIy4BDgbu9EikIDAJFiWxcbDIzDJlxpMqF4aMd20LzZO5Ei0QBARCptA+yHzSHYBxjmm44UQAdwBnC1dyJFowGAiFTTC9gZeye7JzAGTSiUZC0DTsfW+0vKNAAQkXpshg0EynMItkb9iDRmBvbY/x7vRIpKH1wRacZgbJVBeUAwFitSJNKdu4DTgKnOeRSaBgAikqQ+wHbArhWxPSpMJOZN4Dzg16i8rzsNAEQktNWw+gOVg4JtsDkGUgwLsUl+3wHmOeciJRoAiIiHgdiTgR2wwcEOpT8P9UxKEjcfu/FfDsx0zkU60QBARGKyHvZ0YFusSNEuwJboaUHWPIc95v8pVt1PIqQBgIjEbgA2CNiqIrYshbZEjsck4CbgRuBx51ykBhoAiEhWtQIbYwOBbVg5KNgMe5IgYbUBjwJ/L8V4NLEvUzQAEJE86odtkVwttFSxfiuwb/YPAPcDDwKzXTOSpmgAICJFtC6wKTASe1qwQenX9Uu/X5diL12cBjwNPFX69WlgArDUMylJlgYAIiLv1oKVPV4fGxiMxHZSXLMUa3X6c9YGC4uB14EpwOTS7ycDrwFPArP8UpO0aAAgItK8ocDa2GBgdWBQ6dfBpd8PAoaU/t7A0p8HY/MYKpc+DsDqJoD1z6tX/H8Lsdr5YI/j51f8f/NK/9/cHuJN7KavJXnC/wcJj4pavIEqxAAAAABJRU5ErkJggg==;" parent="1" vertex="1">
          <mxGeometry x="80" y="400" width="100" height="100" as="geometry" />
        </mxCell>
        <mxCell id="ZQwrlHbZBG6LkiPaMssS-5" value="" style="endArrow=none;html=1;rounded=0;exitX=0.467;exitY=0.433;exitDx=0;exitDy=0;exitPerimeter=0;strokeWidth=3;" parent="1" source="ZQwrlHbZBG6LkiPaMssS-2" edge="1">
          <mxGeometry width="50" height="50" relative="1" as="geometry">
            <mxPoint x="210" y="460" as="sourcePoint" />
            <mxPoint x="250" y="455" as="targetPoint" />
          </mxGeometry>
        </mxCell>
        <mxCell id="ZQwrlHbZBG6LkiPaMssS-6" value="" style="endArrow=none;html=1;rounded=0;exitX=0.467;exitY=0.433;exitDx=0;exitDy=0;exitPerimeter=0;strokeWidth=3;" parent="1" edge="1">
          <mxGeometry width="50" height="50" relative="1" as="geometry">
            <mxPoint x="137" y="469.5" as="sourcePoint" />
            <mxPoint x="250" y="470" as="targetPoint" />
          </mxGeometry>
        </mxCell>
        <mxCell id="ZQwrlHbZBG6LkiPaMssS-7" value="" style="endArrow=none;html=1;rounded=0;exitX=0.467;exitY=0.433;exitDx=0;exitDy=0;exitPerimeter=0;strokeWidth=3;" parent="1" edge="1">
          <mxGeometry width="50" height="50" relative="1" as="geometry">
            <mxPoint x="156" y="484.5" as="sourcePoint" />
            <mxPoint x="250" y="485" as="targetPoint" />
          </mxGeometry>
        </mxCell>
        <mxCell id="ZQwrlHbZBG6LkiPaMssS-2" value="" style="ellipse;whiteSpace=wrap;html=1;aspect=fixed;fillColor=#FF3333;" parent="1" vertex="1">
          <mxGeometry x="110" y="450" width="10" height="10" as="geometry" />
        </mxCell>
        <mxCell id="ZQwrlHbZBG6LkiPaMssS-3" value="" style="ellipse;whiteSpace=wrap;html=1;aspect=fixed;fillColor=#007FFF;" parent="1" vertex="1">
          <mxGeometry x="131" y="464" width="10" height="10" as="geometry" />
        </mxCell>
        <mxCell id="ZQwrlHbZBG6LkiPaMssS-4" value="" style="ellipse;whiteSpace=wrap;html=1;aspect=fixed;fillColor=#333333;" parent="1" vertex="1">
          <mxGeometry x="150" y="480" width="10" height="10" as="geometry" />
        </mxCell>
        <mxCell id="HUxJ_XKQ4FmgJ0OR8UkE-1" value="&lt;b&gt;Instrumentation&lt;/b&gt;&lt;div&gt;&lt;b&gt;Amplifier&lt;/b&gt;&lt;/div&gt;" style="rounded=0;whiteSpace=wrap;html=1;fillColor=#d5e8d4;strokeColor=#82b366;" vertex="1" parent="1">
          <mxGeometry x="220" y="440" width="100" height="60" as="geometry" />
        </mxCell>
        <mxCell id="HUxJ_XKQ4FmgJ0OR8UkE-4" value="" style="endArrow=none;html=1;rounded=0;exitX=0.467;exitY=0.433;exitDx=0;exitDy=0;exitPerimeter=0;strokeWidth=3;" edge="1" parent="1">
          <mxGeometry width="50" height="50" relative="1" as="geometry">
            <mxPoint x="320" y="469.5" as="sourcePoint" />
            <mxPoint x="370" y="470" as="targetPoint" />
          </mxGeometry>
        </mxCell>
        <mxCell id="HUxJ_XKQ4FmgJ0OR8UkE-7" value="" style="endArrow=none;html=1;rounded=0;exitX=0.467;exitY=0.433;exitDx=0;exitDy=0;exitPerimeter=0;strokeWidth=3;" edge="1" parent="1">
          <mxGeometry width="50" height="50" relative="1" as="geometry">
            <mxPoint x="400" y="469.75" as="sourcePoint" />
            <mxPoint x="450" y="470.25" as="targetPoint" />
          </mxGeometry>
        </mxCell>
        <mxCell id="HUxJ_XKQ4FmgJ0OR8UkE-3" value="&lt;b&gt;ADC&lt;/b&gt;" style="rounded=0;whiteSpace=wrap;html=1;fillColor=#d0cee2;strokeColor=#56517e;" vertex="1" parent="1">
          <mxGeometry x="360" y="440" width="50" height="60" as="geometry" />
        </mxCell>
        <mxCell id="HUxJ_XKQ4FmgJ0OR8UkE-10" value="" style="endArrow=none;html=1;rounded=0;exitX=0.467;exitY=0.433;exitDx=0;exitDy=0;exitPerimeter=0;strokeWidth=3;" edge="1" parent="1">
          <mxGeometry width="50" height="50" relative="1" as="geometry">
            <mxPoint x="520" y="469.75" as="sourcePoint" />
            <mxPoint x="570" y="470.25" as="targetPoint" />
          </mxGeometry>
        </mxCell>
        <mxCell id="HUxJ_XKQ4FmgJ0OR8UkE-6" value="&lt;b&gt;USB&lt;/b&gt;&lt;div&gt;&lt;b&gt;OTG FS&lt;/b&gt;&lt;/div&gt;&lt;div&gt;&lt;b&gt;Controller&lt;/b&gt;&lt;/div&gt;" style="rounded=0;whiteSpace=wrap;html=1;fillColor=#d0cee2;strokeColor=#56517e;" vertex="1" parent="1">
          <mxGeometry x="425" y="440" width="100" height="60" as="geometry" />
        </mxCell>
        <mxCell id="HUxJ_XKQ4FmgJ0OR8UkE-8" value="&lt;b&gt;MATLAB&lt;/b&gt;" style="rounded=0;whiteSpace=wrap;html=1;fillColor=#f8cecc;strokeColor=#b85450;" vertex="1" parent="1">
          <mxGeometry x="565" y="440" width="70" height="60" as="geometry" />
        </mxCell>
        <mxCell id="HUxJ_XKQ4FmgJ0OR8UkE-11" value="&lt;b&gt;SensEdu&lt;/b&gt;" style="text;html=1;align=center;verticalAlign=middle;whiteSpace=wrap;rounded=0;" vertex="1" parent="1">
          <mxGeometry x="270" y="415" width="60" height="30" as="geometry" />
        </mxCell>
        <mxCell id="HUxJ_XKQ4FmgJ0OR8UkE-12" value="&lt;b&gt;STM32H747&lt;/b&gt;" style="text;html=1;align=center;verticalAlign=middle;whiteSpace=wrap;rounded=0;" vertex="1" parent="1">
          <mxGeometry x="465" y="415" width="60" height="30" as="geometry" />
        </mxCell>
        <mxCell id="HUxJ_XKQ4FmgJ0OR8UkE-13" value="&lt;b&gt;PC&lt;/b&gt;" style="text;html=1;align=center;verticalAlign=middle;whiteSpace=wrap;rounded=0;" vertex="1" parent="1">
          <mxGeometry x="603" y="415" width="60" height="30" as="geometry" />
        </mxCell>
      </root>
    </mxGraphModel>
  </diagram>
</mxfile>
